<svg fill="#000000" viewBox="0 0 512 512" enable-background="new 0 0 512 512" id="Trend" version="1.1" xml:space="preserve" xmlns="http://www.w3.org/2000/svg" xmlns:xlink="http://www.w3.org/1999/xlink"><g id="SVGRepo_bgCarrier" stroke-width="0"></g><g id="SVGRepo_tracerCarrier" stroke-linecap="round" stroke-linejoin="round"></g><g id="SVGRepo_iconCarrier"> <g> <path d="M446.73,268.439h-45.29c-3.741,0-6.774,3.033-6.774,6.774s3.033,6.774,6.774,6.774h38.515v180.271h-31.74V305.661 c0-3.741-3.033-6.774-6.774-6.774s-6.774,3.033-6.774,6.774v163.372c0,3.741,3.033,6.773,6.774,6.773h45.29 c3.74,0,6.773-3.032,6.773-6.773V275.214C453.504,271.473,450.471,268.439,446.73,268.439z"></path> <path d="M361.641,352.701h-45.289c-3.742,0-6.775,3.033-6.775,6.774v109.558c0,3.741,3.033,6.773,6.775,6.773h45.289 c3.741,0,6.773-3.032,6.773-6.773V359.476C368.414,355.734,365.382,352.701,361.641,352.701z M354.866,462.259h-31.741V366.25 h31.741V462.259z"></path> <path d="M276.551,390.57h-45.289c-3.742,0-6.774,3.033-6.774,6.775v71.688c0,3.741,3.033,6.773,6.774,6.773h45.289 c3.742,0,6.774-3.032,6.774-6.773v-71.688C283.325,393.604,280.293,390.57,276.551,390.57z M269.776,462.259h-31.741v-58.14h31.741 V462.259z"></path> <path d="M191.461,422.544h-45.29c-3.741,0-6.774,3.032-6.774,6.774v39.715c0,3.741,3.033,6.773,6.774,6.773h45.29 c3.741,0,6.774-3.032,6.774-6.773v-39.715C198.235,425.576,195.203,422.544,191.461,422.544z M184.687,462.259h-31.741v-26.166 h31.741V462.259z"></path> <path d="M413.077,177.319c1.143-2.308,0.877-5.065-0.685-7.113l-26.73-35.032c-1.281-1.68-3.273-2.666-5.385-2.666 c-2.113,0-4.105,0.986-5.387,2.666l-26.729,35.032c-2.27,2.974-1.697,7.225,1.276,9.495c1.228,0.936,2.672,1.389,4.104,1.389 c2.041,0,4.057-0.917,5.391-2.665l21.344-27.974l13.039,17.09h-13.039c-3.742,0-6.774,3.033-6.774,6.774 c0,97.535-79.351,176.885-176.885,176.885c-3.742,0-6.774,3.033-6.774,6.775c0,3.74,3.033,6.773,6.774,6.773 c102.737,0,186.718-81.78,190.3-183.659h20.088C409.582,181.089,411.936,179.628,413.077,177.319z"></path> <path d="M289.732,276.23c0.386-0.295,0.733-0.629,1.048-0.999c27.02-25.228,43.958-61.123,43.958-100.917 c0-76.16-61.961-138.121-138.121-138.121c-3.452,0-6.862,0.17-10.251,0.42c-0.008,0-0.016-0.001-0.024,0 c-0.005,0-0.01,0.002-0.016,0.003c-38.972,2.887-73.493,21.985-96.806,50.595c-0.391,0.383-0.723,0.819-1.013,1.288 c-18.762,23.587-30.013,53.403-30.013,85.814c0,36.062,13.906,68.926,36.62,93.55c0.29,0.378,0.619,0.72,0.981,1.029 c25.207,26.774,60.933,43.542,100.521,43.542C232.463,312.436,265.157,298.703,289.732,276.23z M191.14,274.525 c-14.631-11.31-32.874-17.537-51.368-17.537h-36.23c-19.574-22.013-31.497-50.971-31.497-82.674 c0-28.364,9.547-54.528,25.571-75.492h37.786c9.966,0,18.075,8.108,18.075,18.075c0,9.967-8.109,18.076-18.075,18.076h-18.369 c-15.455,0-28.029,12.574-28.029,28.029c0,15.456,12.574,28.029,28.029,28.029h1.417c9.157,0,16.605,7.45,16.605,16.607 c0,9.157-7.449,16.606-16.605,16.606c-3.742,0-6.774,3.032-6.774,6.774c0,3.741,3.033,6.774,6.774,6.774 c16.627,0,30.154-13.528,30.154-30.155c0-16.628-13.527-30.155-30.154-30.155h-1.417c-7.985,0-14.48-6.496-14.48-14.481 c0-7.985,6.496-14.48,14.48-14.48h18.369c17.437,0,31.624-14.186,31.624-31.625c0-17.438-14.187-31.624-31.624-31.624h-25.785 c19.031-18.599,43.973-31.148,71.714-34.561c5.422,24.208,26.823,41.732,52.294,41.732h19.699c3.741,0,6.773-3.033,6.773-6.774 s-3.032-6.774-6.773-6.774h-19.699c-18.304,0-33.787-12.107-38.555-29.116c0.518-0.006,1.028-0.039,1.547-0.039 c68.689,0,124.572,55.883,124.572,124.573c0,35.244-14.736,67.092-38.342,89.774h-22.665c-7.25,0-13.148-5.897-13.148-13.147 s5.898-13.147,13.148-13.147h2.568c15.05,0,27.294-12.245,27.294-27.294s-12.244-27.293-27.294-27.293h-24.105 c-11.336,0-20.558-9.223-20.558-20.559s9.222-20.558,20.558-20.558h49.802c3.741,0,6.773-3.032,6.773-6.774 s-3.032-6.774-6.773-6.774h-49.802c-18.807,0-34.106,15.3-34.106,34.106s15.3,34.107,34.106,34.107h24.105 c7.579,0,13.745,6.166,13.745,13.745s-6.166,13.745-13.745,13.745h-2.568c-14.721,0-26.696,11.976-26.696,26.696 s11.976,26.695,26.696,26.695h5.951c-19.869,13.412-43.794,21.25-69.516,21.25c-29.976,0-57.51-10.646-79.028-28.351h22.182 c15.511,0,30.811,5.224,43.083,14.708c1.232,0.953,2.691,1.414,4.138,1.414c2.025,0,4.03-0.904,5.364-2.632 C194.645,281.066,194.101,276.813,191.14,274.525z"></path> </g> </g></svg>