<?xml version="1.0" encoding="iso-8859-1"?>
<!-- Generator: Adobe Illustrator 22.1.0, SVG Export Plug-In . SVG Version: 6.00 Build 0)  -->
<svg version="1.1" id="Layer_1" xmlns="http://www.w3.org/2000/svg" xmlns:xlink="http://www.w3.org/1999/xlink" x="0px" y="0px"
	 viewBox="0 0 50 50" style="enable-background:new 0 0 50 50;" xml:space="preserve">
<rect x="0.031" style="fill:#03023B;" width="50" height="50"/>
<g>
	<g>
		<path style="opacity:0.4;fill:#808285;" d="M26.574,24.937h-8.036v-4.078h8.036c0.564,0,1.074,0.232,1.445,0.597
			c0.371,0.371,0.597,0.882,0.597,1.445C28.616,24.029,27.701,24.937,26.574,24.937z"/>
		<path style="fill:#33ECFF;" d="M35.604,22.901c0,2.493-1.008,4.747-2.646,6.385c-1.638,1.631-3.892,2.639-6.385,2.639h-3.958
			v-4.018h3.958c2.765,0,5.006-2.241,5.006-5.006c0-1.386-0.564-2.632-1.465-3.541c-0.908-0.908-2.161-1.465-3.541-1.465h-8.036
			v-4.025h8.036C31.56,13.871,35.604,17.915,35.604,22.901z"/>
		<path style="opacity:0.5;fill:#808285;" d="M28.616,22.901c0,1.127-0.915,2.035-2.042,2.035h-8.036v-4.078h8.036
			c0.564,0,1.074,0.232,1.445,0.597C28.39,21.827,28.616,22.338,28.616,22.901z"/>
		<path style="fill:#7651F7;" d="M28.616,22.901c0,1.127-0.915,2.035-2.042,2.035h-8.036v-4.078h8.036
			c0.564,0,1.074,0.232,1.445,0.597C28.39,21.827,28.616,22.338,28.616,22.901z"/>
		<rect x="14.459" y="20.859" style="fill:#0BAAFC;" width="4.078" height="4.092"/>
		<g>
			<polygon style="fill:#7651F7;" points="22.614,31.925 22.614,36.129 14.458,36.129 14.458,24.937 18.536,24.937 18.536,31.925 
							"/>
		</g>
	</g>
</g>
</svg>
