<?xml version="1.0" encoding="utf-8"?>
<!-- Generator: Adobe Illustrator 22.1.0, SVG Export Plug-In . SVG Version: 6.00 Build 0)  -->
<svg version="1.1" id="Layer_1" xmlns="http://www.w3.org/2000/svg" xmlns:xlink="http://www.w3.org/1999/xlink" x="0px" y="0px"
	 viewBox="0 0 50 50" style="enable-background:new 0 0 50 50;" xml:space="preserve">
<style type="text/css">
	.st0{opacity:0.4;fill:#808285;enable-background:new    ;}
	.st1{fill:#0BAAFC;}
	.st2{opacity:0.5;fill:#808285;enable-background:new    ;}
	.st3{fill:#7651F7;}
	.st4{fill:#33ECFF;}
</style>
<g>
	<g>
		<path class="st0" d="M27.4,24.9H14.9v-6.4h12.5c0.9,0,1.7,0.4,2.3,0.9c0.6,0.6,0.9,1.4,0.9,2.3C30.6,23.5,29.2,24.9,27.4,24.9z"/>
		<path class="st1" d="M41.5,21.7c0,3.9-1.6,7.4-4.1,10c-2.6,2.5-6.1,4.1-10,4.1h-6.2v-6.3h6.2c4.3,0,7.8-3.5,7.8-7.8
			c0-2.2-0.9-4.1-2.3-5.5c-1.4-1.4-3.4-2.3-5.5-2.3H14.9V7.6h12.5C35.2,7.6,41.5,13.9,41.5,21.7z"/>
		<path class="st2" d="M30.6,21.7c0,1.8-1.4,3.2-3.2,3.2H14.9v-6.4h12.5c0.9,0,1.7,0.4,2.3,0.9C30.3,20,30.6,20.8,30.6,21.7z"/>
		<path class="st3" d="M30.6,21.7c0,1.8-1.4,3.2-3.2,3.2H14.9v-6.4h12.5c0.9,0,1.7,0.4,2.3,0.9C30.3,20,30.6,20.8,30.6,21.7z"/>
		<rect x="8.5" y="18.5" class="st4" width="6.4" height="6.4"/>
		<g>
			<polygon class="st3" points="21.3,35.8 21.3,42.4 8.5,42.4 8.5,24.9 14.9,24.9 14.9,35.8 			"/>
		</g>
	</g>
</g>
</svg>
